<?xml version="1.0" standalone="no"?>
<!DOCTYPE svg PUBLIC "-//W3C//DTD SVG 20010904//EN"
 "http://www.w3.org/TR/2001/REC-SVG-20010904/DTD/svg10.dtd">
<svg version="1.0" xmlns="http://www.w3.org/2000/svg"
 width="1280.000000pt" height="1280.000000pt" viewBox="0 0 1280.000000 1280.000000"
 preserveAspectRatio="xMidYMid meet">

<g transform="translate(0.000000,1280.000000) scale(0.100000,-0.100000)"
fill="#000000" stroke="none">
<path d="M0 6400 l0 -6400 6400 0 6400 0 0 6400 0 6400 -6400 0 -6400 0 0
-6400z m3146 1112 c277 -297 340 -361 349 -348 6 8 46 147 89 308 44 161 83
301 88 311 8 15 28 17 198 17 171 0 190 -2 190 -17 0 -20 -7 -46 -160 -618
-142 -526 -163 -607 -200 -748 -16 -60 -31 -112 -35 -115 -6 -6 -64 49 -458
438 -131 129 -245 235 -254 235 -10 0 -20 -12 -25 -30 -11 -39 -71 -268 -98
-370 -11 -44 -28 -104 -36 -132 l-15 -53 -194 0 c-159 0 -195 3 -195 14 0 13
62 249 275 1041 51 193 99 369 105 393 7 27 16 42 24 40 8 -2 166 -166 352
-366z m3162 326 c28 -109 332 -1428 332 -1437 0 -8 -69 -11 -220 -11 l-220 0
-7 28 c-3 15 -32 158 -63 317 -37 192 -60 290 -68 290 -11 0 -114 -137 -389
-517 l-85 -118 -220 0 c-146 0 -219 3 -216 10 6 18 1131 1480 1139 1480 3 0
11 -19 17 -42z m1177 -326 c218 -233 342 -359 348 -353 5 5 46 146 92 313 45
168 85 310 89 316 5 9 62 12 197 12 170 0 189 -2 189 -17 0 -9 -25 -111 -56
-227 -31 -116 -115 -427 -185 -691 -71 -264 -134 -499 -140 -522 -6 -24 -15
-43 -18 -43 -4 0 -162 152 -351 338 -189 185 -350 337 -359 337 -11 0 -27 -47
-63 -180 -46 -175 -61 -227 -94 -347 l-15 -58 -195 0 c-165 0 -194 2 -194 15
0 14 62 247 280 1060 49 182 94 349 100 373 7 27 16 42 24 40 7 -2 165 -166
351 -366z m-5025 276 c0 -6 -47 -187 -105 -402 -210 -780 -265 -987 -265 -991
0 -3 -90 -5 -201 -5 -186 0 -200 1 -195 18 7 23 174 645 280 1042 48 179 89
331 91 338 6 17 395 18 395 0z m3063 5 c3 -5 -61 -93 -142 -198 l-146 -190
-342 -5 c-317 -5 -342 -6 -362 -24 -12 -11 -21 -27 -21 -36 0 -41 22 -45 294
-51 217 -4 269 -8 311 -23 132 -48 190 -131 189 -271 -1 -228 -133 -451 -317
-540 -129 -61 -174 -66 -679 -63 l-448 3 146 190 c80 105 151 193 157 197 7 4
157 8 335 8 264 0 328 3 351 15 36 18 46 43 26 65 -14 16 -45 18 -268 22 -223
4 -260 7 -319 27 -86 28 -159 92 -182 158 -51 148 25 419 152 548 82 83 159
125 286 156 62 15 131 17 523 18 248 1 454 -2 456 -6z m4321 -515 c-4 -7 -72
-97 -152 -200 l-143 -188 -354 0 -353 0 -11 -31 c-6 -18 -11 -40 -11 -50 0
-18 18 -19 439 -19 274 0 442 -4 446 -10 3 -5 -60 -95 -141 -200 l-147 -190
-554 0 c-523 0 -554 1 -549 18 3 9 51 188 106 397 56 209 108 404 116 433 l15
52 650 0 c517 0 649 -3 643 -12z m651 -1138 c68 -33 137 -95 184 -166 37 -57
77 -172 64 -185 -13 -13 -317 -129 -338 -129 -9 0 -13 5 -9 11 3 6 6 121 5
255 -2 280 -9 264 94 214z m-20 -845 c28 -14 55 -25 60 -25 6 0 21 -9 34 -19
l25 -19 -40 -48 c-46 -58 -103 -109 -119 -109 -7 0 -20 -7 -30 -15 -17 -14
-18 -13 -11 10 4 14 9 41 10 60 2 19 7 43 11 52 4 9 5 44 3 78 -1 33 -1 60 2
60 3 0 28 -12 55 -25z"/>
</g>
</svg>
